<?xml version="1.0" encoding="UTF-8" standalone="no"?>
<!DOCTYPE svg PUBLIC "-//W3C//DTD SVG 1.1//EN"
 "http://www.w3.org/Graphics/SVG/1.1/DTD/svg11.dtd">
<!-- Generated by graphviz version 2.40.1 (20161225.0304)
 -->
<!-- Title: %3 Pages: 1 -->
<svg width="227pt" height="188pt"
 viewBox="0.00 0.00 227.09 188.00" xmlns="http://www.w3.org/2000/svg" xmlns:xlink="http://www.w3.org/1999/xlink">
<g id="graph0" class="graph" transform="scale(1 1) rotate(0) translate(4 184)">
<title>%3</title>
<polygon fill="#ffffff" stroke="transparent" points="-4,4 -4,-184 223.0946,-184 223.0946,4 -4,4"/>
<!-- 140734712831888 -->
<g id="node1" class="node">
<title>140734712831888</title>
<ellipse fill="none" stroke="#000000" cx="148.5473" cy="-162" rx="30.5947" ry="18"/>
<text text-anchor="middle" x="148.5473" y="-158.3" font-family="Times,serif" font-size="14.00" fill="#000000">7, 2</text>
</g>
<!-- 94632410996384 -->
<g id="node2" class="node">
<title>94632410996384</title>
<ellipse fill="none" stroke="#000000" cx="109.5473" cy="-90" rx="30.5947" ry="18"/>
<text text-anchor="middle" x="109.5473" y="-86.3" font-family="Times,serif" font-size="14.00" fill="#000000">5, 4</text>
</g>
<!-- 140734712831888&#45;&gt;94632410996384 -->
<g id="edge1" class="edge">
<title>140734712831888&#45;&gt;94632410996384</title>
<path fill="none" stroke="#000000" d="M139.1065,-144.5708C134.5076,-136.0807 128.8809,-125.6929 123.7755,-116.2674"/>
<polygon fill="#000000" stroke="#000000" points="126.7416,-114.3946 118.9012,-107.2687 120.5865,-117.7286 126.7416,-114.3946"/>
</g>
<!-- 94632410996576 -->
<g id="node5" class="node">
<title>94632410996576</title>
<ellipse fill="none" stroke="#000000" cx="188.5473" cy="-90" rx="30.5947" ry="18"/>
<text text-anchor="middle" x="188.5473" y="-86.3" font-family="Times,serif" font-size="14.00" fill="#000000">9, 6</text>
</g>
<!-- 140734712831888&#45;&gt;94632410996576 -->
<g id="edge4" class="edge">
<title>140734712831888&#45;&gt;94632410996576</title>
<path fill="none" stroke="#000000" d="M158.2302,-144.5708C162.9469,-136.0807 168.7179,-125.6929 173.9543,-116.2674"/>
<polygon fill="#000000" stroke="#000000" points="177.1567,-117.71 178.9536,-107.2687 171.0375,-114.3105 177.1567,-117.71"/>
</g>
<!-- 94632410996352 -->
<g id="node3" class="node">
<title>94632410996352</title>
<ellipse fill="none" stroke="#000000" cx="30.5473" cy="-18" rx="30.5947" ry="18"/>
<text text-anchor="middle" x="30.5473" y="-14.3" font-family="Times,serif" font-size="14.00" fill="#000000">2, 3</text>
</g>
<!-- 94632410996384&#45;&gt;94632410996352 -->
<g id="edge2" class="edge">
<title>94632410996384&#45;&gt;94632410996352</title>
<path fill="none" stroke="#000000" d="M92.7934,-74.7307C81.7958,-64.7075 67.2298,-51.4321 54.9533,-40.2434"/>
<polygon fill="#000000" stroke="#000000" points="57.0256,-37.3966 47.277,-33.2473 52.3103,-42.5702 57.0256,-37.3966"/>
</g>
<!-- 94632410996544 -->
<g id="node4" class="node">
<title>94632410996544</title>
<ellipse fill="none" stroke="#000000" cx="109.5473" cy="-18" rx="30.5947" ry="18"/>
<text text-anchor="middle" x="109.5473" y="-14.3" font-family="Times,serif" font-size="14.00" fill="#000000">4, 7</text>
</g>
<!-- 94632410996384&#45;&gt;94632410996544 -->
<g id="edge3" class="edge">
<title>94632410996384&#45;&gt;94632410996544</title>
<path fill="none" stroke="#000000" d="M109.5473,-71.8314C109.5473,-64.131 109.5473,-54.9743 109.5473,-46.4166"/>
<polygon fill="#000000" stroke="#000000" points="113.0474,-46.4132 109.5473,-36.4133 106.0474,-46.4133 113.0474,-46.4132"/>
</g>
<!-- 94632410996608 -->
<g id="node6" class="node">
<title>94632410996608</title>
<ellipse fill="none" stroke="#000000" cx="188.5473" cy="-18" rx="30.5947" ry="18"/>
<text text-anchor="middle" x="188.5473" y="-14.3" font-family="Times,serif" font-size="14.00" fill="#000000">8, 1</text>
</g>
<!-- 94632410996576&#45;&gt;94632410996608 -->
<g id="edge5" class="edge">
<title>94632410996576&#45;&gt;94632410996608</title>
<path fill="none" stroke="#000000" d="M188.5473,-71.8314C188.5473,-64.131 188.5473,-54.9743 188.5473,-46.4166"/>
<polygon fill="#000000" stroke="#000000" points="192.0474,-46.4132 188.5473,-36.4133 185.0474,-46.4133 192.0474,-46.4132"/>
</g>
</g>
</svg>
